<?xml version="1.0" standalone="no"?>
<!DOCTYPE svg PUBLIC "-//W3C//DTD SVG 20010904//EN"
 "http://www.w3.org/TR/2001/REC-SVG-20010904/DTD/svg10.dtd">
<svg version="1.0" xmlns="http://www.w3.org/2000/svg"
 width="788.000000pt" height="747.000000pt" viewBox="0 0 788.000000 747.000000"
 preserveAspectRatio="xMidYMid meet">

<g transform="translate(0.000000,747.000000) scale(0.100000,-0.100000)"
fill="#000000" stroke="none">
<path d="M3303 6535 c-18 -8 -72 -54 -119 -102 -274 -279 -1496 -1542 -1514
-1565 -45 -58 -38 -149 15 -203 67 -66 150 -60 232 18 l54 51 77 -76 c42 -42
554 -538 1136 -1102 713 -690 1083 -1042 1129 -1073 270 -179 626 -178 898 2
73 49 473 452 549 555 49 65 104 178 126 257 10 33 19 114 21 189 4 111 2 143
-16 215 -27 105 -79 216 -139 296 -26 34 -557 556 -1179 1159 l-1133 1098 30
31 c118 122 -13 317 -167 250z m678 -1498 c70 -47 101 -125 79 -201 -37 -133
-195 -202 -301 -132 -121 81 -96 266 46 340 46 24 135 21 176 -7z m-806 -222
c14 -13 25 -36 25 -50 0 -35 -42 -75 -79 -75 -77 0 -90 111 -16 140 33 14 45
11 70 -15z m748 -677 c35 -18 46 -40 47 -85 0 -58 -38 -102 -97 -110 -39 -5
-46 -2 -78 30 -39 39 -44 70 -20 117 29 55 95 77 148 48z m-8 -658 c-8 -9 -15
-30 -15 -47 0 -64 72 -104 120 -65 l24 20 244 -237 c134 -130 269 -253 300
-274 84 -56 177 -82 292 -82 134 0 234 31 324 100 l50 38 -32 -39 c-80 -97
-222 -187 -347 -219 -76 -19 -214 -19 -290 0 -94 24 -194 77 -267 141 -38 33
-202 190 -366 349 l-298 290 75 81 76 82 62 -61 c56 -55 61 -63 48 -77z m1455
-435 c-24 -25 -46 -45 -49 -45 -3 0 15 20 39 45 24 25 46 45 49 45 3 0 -15
-20 -39 -45z"/>
<path d="M5905 4788 c-16 -6 -50 -25 -75 -43 -48 -35 -170 -172 -207 -233 -39
-63 -33 -78 66 -173 186 -179 286 -213 428 -144 62 31 154 127 183 191 30 68
28 165 -5 231 -31 62 -100 127 -162 155 -54 24 -184 33 -228 16z"/>
<path d="M1752 4329 c-141 -27 -290 -154 -353 -300 -20 -44 -24 -71 -24 -144
0 -82 4 -96 34 -157 78 -156 230 -248 413 -248 97 0 160 27 252 108 86 76 316
327 316 345 0 20 -295 290 -375 343 -50 34 -148 65 -195 63 -14 -1 -44 -5 -68
-10z"/>
<path d="M3642 1805 c-187 -41 -293 -202 -280 -426 7 -121 36 -189 113 -266
53 -53 71 -64 134 -83 204 -62 398 27 472 217 30 77 33 241 6 323 -40 121
-137 208 -263 235 -83 18 -100 18 -182 0z m158 -193 c36 -37 50 -88 50 -189 0
-169 -31 -233 -115 -233 -88 0 -120 67 -113 240 3 75 9 116 22 143 34 69 107
88 156 39z"/>
<path d="M4410 1809 c-77 -13 -133 -43 -178 -94 -87 -99 -82 -240 10 -321 39
-34 120 -65 238 -89 81 -17 110 -36 110 -71 0 -32 -28 -44 -99 -44 -53 0 -64
4 -96 31 -19 17 -35 37 -35 45 0 8 -9 14 -21 14 -23 0 -202 -31 -208 -36 -11
-10 56 -119 93 -151 59 -52 123 -74 231 -80 249 -15 418 125 376 312 -24 108
-87 151 -285 194 -118 26 -136 34 -136 66 0 70 130 74 190 6 l25 -29 87 26
c48 15 90 30 94 34 11 12 -44 95 -81 123 -74 57 -204 83 -315 64z"/>
<path d="M1060 1415 l0 -395 120 0 120 0 -2 393 -3 392 -117 3 -118 3 0 -396z"/>
<path d="M1440 1415 l0 -395 96 0 96 0 -4 245 -3 245 30 -59 c17 -32 82 -142
145 -245 l115 -186 98 0 97 0 0 395 0 395 -96 0 -96 0 4 -213 4 -214 -19 36
c-25 47 -216 351 -235 374 -13 14 -33 17 -124 17 l-108 0 0 -395z"/>
<path d="M2250 1415 l0 -397 253 4 c275 4 298 8 350 64 58 62 73 178 35 254
-17 33 -36 52 -73 72 -48 26 -49 27 -25 36 114 45 133 213 34 303 -52 47 -83
52 -336 57 l-238 4 0 -397z m383 206 c33 -13 43 -46 23 -76 -15 -23 -22 -25
-101 -25 l-85 0 0 55 0 55 69 0 c38 0 81 -4 94 -9z m22 -306 c30 -29 32 -64 5
-93 -18 -19 -31 -22 -105 -22 l-85 0 0 70 0 70 80 0 c73 0 83 -3 105 -25z"/>
<path d="M3017 1803 c-4 -3 -7 -181 -7 -395 l0 -388 120 0 120 0 0 395 0 395
-113 0 c-63 0 -117 -3 -120 -7z"/>
<path d="M4937 1803 c-4 -3 -7 -183 -7 -400 l0 -393 280 0 280 0 0 100 0 100
-155 0 -155 0 0 300 0 300 -118 0 c-65 0 -122 -3 -125 -7z"/>
<path d="M5750 1806 c0 -2 -54 -179 -120 -393 -66 -213 -120 -391 -120 -395 0
-5 44 -8 98 -8 l97 0 25 78 25 77 105 0 105 0 21 -75 21 -75 128 -3 c111 -2
127 -1 122 13 -4 8 -54 167 -112 352 -58 186 -113 359 -121 386 l-16 47 -129
0 c-71 0 -129 -2 -129 -4z m139 -351 c12 -44 24 -88 27 -97 5 -16 -2 -18 -55
-18 -34 0 -61 3 -61 6 0 23 55 203 60 197 4 -4 17 -44 29 -88z"/>
<path d="M6330 1410 l0 -401 238 4 c288 4 300 7 363 68 73 71 80 231 12 292
-11 9 -37 25 -57 35 l-38 19 30 12 c100 42 121 226 34 302 -65 58 -88 63 -344
67 l-238 4 0 -402z m392 203 c27 -24 23 -68 -9 -93 -22 -17 -38 -20 -92 -18
l-66 3 -3 63 -3 62 77 0 c58 0 82 -4 96 -17z m6 -300 c19 -16 26 -39 23 -69 0
-5 -10 -20 -21 -32 -18 -19 -31 -22 -100 -22 l-80 0 0 70 0 70 79 0 c61 0 84
-4 99 -17z"/>
<path d="M6048 658 c-65 -50 -66 -52 -50 -73 l17 -23 55 25 c30 14 63 27 73
30 9 3 17 10 17 15 0 10 -39 79 -43 77 -1 0 -32 -23 -69 -51z"/>
<path d="M1497 505 c-28 -10 -64 -32 -87 -55 -112 -112 -83 -341 52 -412 63
-32 175 -32 241 1 95 46 141 154 119 279 -20 122 -93 188 -214 197 -41 3 -80
0 -111 -10z m172 -101 c71 -60 69 -225 -4 -282 -41 -33 -123 -31 -164 4 -71
60 -69 225 4 282 41 33 123 31 164 -4z"/>
<path d="M3367 505 c-28 -10 -64 -32 -87 -55 -112 -112 -83 -341 52 -412 63
-32 175 -32 241 1 95 46 141 154 119 279 -20 122 -93 188 -214 197 -41 3 -80
0 -111 -10z m172 -101 c71 -60 69 -225 -4 -282 -41 -33 -123 -31 -164 4 -71
60 -69 225 4 282 41 33 123 31 164 -4z"/>
<path d="M4587 505 c-28 -10 -64 -32 -87 -55 -112 -112 -83 -341 52 -412 63
-32 175 -32 241 1 95 46 141 154 119 279 -20 122 -93 188 -214 197 -41 3 -80
0 -111 -10z m172 -101 c71 -60 69 -225 -4 -282 -41 -33 -123 -31 -164 4 -71
60 -69 225 4 282 41 33 123 31 164 -4z"/>
<path d="M5299 504 c-139 -42 -196 -266 -103 -406 47 -72 163 -105 265 -74 80
24 85 28 69 65 -17 41 -22 43 -64 26 -45 -19 -87 -19 -132 0 -89 37 -101 228
-19 293 34 27 111 30 156 6 17 -8 32 -14 34 -12 1 2 10 18 20 37 20 39 17 43
-59 66 -60 18 -106 18 -167 -1z"/>
<path d="M7109 504 c-139 -42 -196 -266 -103 -406 47 -72 163 -105 265 -74 80
24 85 28 69 65 -17 41 -22 43 -64 26 -45 -19 -87 -19 -132 0 -89 37 -101 228
-19 293 34 27 111 30 156 6 17 -8 32 -14 34 -12 1 2 10 18 20 37 20 39 17 43
-59 66 -60 18 -106 18 -167 -1z"/>
<path d="M7547 505 c-28 -10 -64 -32 -87 -55 -112 -112 -83 -341 52 -412 63
-32 175 -32 241 1 95 46 141 154 119 279 -20 122 -93 188 -214 197 -41 3 -80
0 -111 -10z m172 -101 c71 -60 69 -225 -4 -282 -41 -33 -123 -31 -164 4 -71
60 -69 225 4 282 41 33 123 31 164 -4z"/>
<path d="M0 265 l0 -245 170 0 170 0 0 45 0 45 -120 0 -120 0 0 200 0 200 -50
0 -50 0 0 -245z"/>
<path d="M525 498 c-2 -7 -34 -94 -71 -193 -36 -99 -74 -204 -85 -233 l-18
-53 56 3 56 3 17 50 17 50 95 3 96 3 18 -52 c10 -28 24 -53 30 -56 6 -2 32 -3
57 -1 l45 3 -88 240 -88 240 -66 3 c-47 2 -68 -1 -71 -10z m105 -183 c13 -38
25 -76 28 -82 3 -10 -13 -13 -62 -13 -36 0 -66 1 -66 3 0 3 45 138 55 166 9
22 20 3 45 -74z"/>
<path d="M900 265 l0 -245 118 0 c181 1 247 33 258 126 6 48 -11 81 -54 110
l-32 22 24 15 c55 37 58 126 5 171 -42 36 -89 46 -211 46 l-108 0 0 -245z
m234 146 c9 -8 16 -26 16 -42 0 -39 -33 -59 -97 -59 l-53 0 0 53 c0 30 3 57 8
61 11 12 109 1 126 -13z m16 -201 c24 -24 26 -57 3 -82 -13 -14 -31 -18 -85
-18 l-68 0 0 60 0 60 65 0 c52 0 69 -4 85 -20z"/>
<path d="M1910 265 l0 -245 50 0 50 0 0 90 c0 88 0 90 24 90 19 0 37 -19 85
-90 l62 -90 60 0 60 0 -67 97 c-42 60 -63 98 -55 101 56 19 99 101 87 166 -17
89 -93 126 -258 126 l-98 0 0 -245z m232 138 c18 -16 24 -68 10 -89 -14 -21
-51 -34 -96 -34 l-46 0 0 70 0 70 57 0 c38 0 62 -5 75 -17z"/>
<path d="M2505 498 c-2 -7 -34 -94 -71 -193 -36 -99 -74 -204 -85 -233 l-18
-53 56 3 56 3 17 50 17 50 95 3 96 3 18 -52 c10 -28 24 -53 30 -56 6 -2 32 -3
57 -1 l45 3 -88 240 -88 240 -66 3 c-47 2 -68 -1 -71 -10z m105 -183 c13 -38
25 -76 28 -82 3 -10 -13 -13 -62 -13 -36 0 -66 1 -66 3 0 3 45 138 55 166 9
22 20 3 45 -74z"/>
<path d="M2770 465 l0 -45 80 0 80 0 0 -200 0 -200 50 0 50 0 0 200 0 200 80
0 80 0 0 45 0 45 -210 0 -210 0 0 -45z"/>
<path d="M3780 265 l0 -245 50 0 50 0 0 90 c0 88 0 90 24 90 19 0 37 -19 85
-90 l62 -90 60 0 60 0 -67 97 c-42 60 -63 98 -55 101 56 19 99 101 87 166 -17
89 -93 126 -258 126 l-98 0 0 -245z m232 138 c18 -16 24 -68 10 -89 -14 -21
-51 -34 -96 -34 l-46 0 0 70 0 70 57 0 c38 0 62 -5 75 -17z"/>
<path d="M4240 265 l0 -245 50 0 50 0 0 245 0 245 -50 0 -50 0 0 -245z"/>
<path d="M5610 265 l0 -245 170 0 170 0 0 45 0 45 -120 0 -120 0 0 200 0 200
-50 0 -50 0 0 -245z"/>
<path d="M6010 265 l0 -245 50 0 50 0 0 245 0 245 -50 0 -50 0 0 -245z"/>
<path d="M6220 265 l0 -245 50 0 50 0 2 162 3 162 109 -162 109 -162 59 0 58
0 0 245 0 245 -50 0 -50 0 -2 -162 -3 -163 -110 162 -110 162 -57 1 -58 0 0
-245z"/>
<path d="M6770 265 l0 -245 50 0 50 0 0 245 0 245 -50 0 -50 0 0 -245z"/>
</g>
</svg>
